<svg width="24" height="24" fill="none" xmlns="http://www.w3.org/2000/svg"><g clip-path="url(#clip0_1_14)"><g filter="url(#filter0_d_1_14)"><path d="M23.977 7.056c-.057-1.275-.263-2.152-.558-2.912a5.857 5.857 0 00-1.388-2.128A5.905 5.905 0 0019.907.633C19.143.338 18.27.13 16.995.075 15.711.015 15.303 0 12.046 0 8.785 0 8.377.014 7.097.07c-1.274.057-2.151.263-2.91.558a5.856 5.856 0 00-2.129 1.388A5.909 5.909 0 00.675 4.14C.38 4.904.173 5.776.117 7.05.057 8.336.042 8.744.042 12.002c0 3.259.014 3.667.07 4.947.057 1.275.263 2.151.559 2.911a5.918 5.918 0 001.387 2.129 5.9 5.9 0 002.124 1.383c.764.295 1.636.501 2.912.558 1.28.056 1.687.07 4.946.07 3.258 0 3.666-.014 4.946-.07 1.275-.057 2.152-.263 2.912-.558a6.139 6.139 0 003.511-3.512c.296-.764.502-1.636.558-2.911.056-1.28.07-1.688.07-4.947 0-3.258-.004-3.666-.06-4.946zm-2.162 9.799c-.051 1.172-.248 1.805-.412 2.227a3.981 3.981 0 01-2.279 2.278c-.422.165-1.06.361-2.227.413-1.266.056-1.645.07-4.848.07-3.202 0-3.586-.014-4.848-.07-1.172-.052-1.805-.248-2.227-.413a3.693 3.693 0 01-1.378-.895 3.73 3.73 0 01-.896-1.378c-.164-.422-.36-1.06-.412-2.227-.056-1.266-.07-1.646-.07-4.848 0-3.203.014-3.587.07-4.848.051-1.172.248-1.805.412-2.227.193-.52.497-.994.9-1.379a3.726 3.726 0 011.38-.895c.421-.164 1.059-.36 2.226-.413 1.266-.056 1.646-.07 4.848-.07 3.207 0 3.586.014 4.848.07 1.172.052 1.805.249 2.227.413.52.192.994.497 1.378.895.399.39.703.858.896 1.379.164.422.36 1.06.412 2.227.056 1.266.07 1.645.07 4.848 0 3.202-.014 3.577-.07 4.843z" fill="#fff"/><path d="M22.952 4.32h0a5.366 5.366 0 00-1.27-1.947l-.007-.007h0A5.408 5.408 0 0019.731 1.1l-.004-.002h0c-.71-.274-1.527-.47-2.753-.524h-.002C15.699.514 15.3.499 12.044.499 8.79.5 8.39.513 7.12.57l15.832 3.752zm0 0l.001.005m-.001-.004l.001.004m0 0c.274.704.47 1.526.525 2.753l-.525-2.753zm-18.59-3.23h0c-.74.28-1.4.709-1.948 1.27l-.007.007h0a5.41 5.41 0 00-1.266 1.944l-.001.004h0C.866 5.03.67 5.847.616 7.073v.002C.556 8.348.54 8.746.54 12.002c0 3.256.014 3.656.07 4.925L4.363 1.095zm0 0l.005-.002m-.005.002l.005-.002m0 0C5.07.82 5.894.623 7.12.57l-2.752.524zm-3.23 18.59h0c.278.739.712 1.4 1.27 1.95l.006.005h0a5.41 5.41 0 001.944 1.267l.004.001c.71.274 1.527.47 2.754.525 1.268.056 1.668.07 4.924.07 3.256 0 3.655-.014 4.924-.07 1.227-.054 2.05-.25 2.753-.524h0a5.64 5.64 0 003.227-3.227l-21.807.004zm0 0l-.002-.004m.001.005l-.001-.005m0 0c-.274-.703-.47-1.526-.525-2.752l.525 2.752zm22.332-2.752s0 0 0 0l.5.022-.5-.022zm0 0c-.053 1.226-.25 2.044-.524 2.753l.524-2.753zm-1.6 2.335a4.48 4.48 0 01-2.563 2.564c-.472.183-1.163.392-2.386.446 0 0 0 0 0 0l-.022-.5c-1.266.057-1.645.071-4.848.071l9.82-2.58zm0 0c.183-.471.392-1.157.446-2.385.057-1.277.07-1.66.07-4.865s-.013-3.593-.07-4.87c-.054-1.22-.262-1.91-.445-2.382a4.23 4.23 0 00-1.008-1.553 4.19 4.19 0 00-1.555-1.01c-.471-.183-1.157-.391-2.382-.445l4.944 17.51zm-19.634.002a4.23 4.23 0 001.008 1.553l-1.453-3.935c.054 1.22.262 1.91.445 2.382zm-.515-7.252c0 3.204.013 3.593.07 4.87l5.395-15.13c-1.22.054-1.91.261-2.382.444A4.225 4.225 0 003.25 3.203c-.456.438-.8.972-1.016 1.557-.183.471-.39 1.157-.445 2.382-.057 1.272-.07 1.665-.07 4.87zM12.054 1.68c-3.205 0-3.593.014-4.87.07h9.74c-1.272-.056-1.66-.07-4.87-.07z" stroke="#fff" stroke-width=".998"/></g><g filter="url(#filter1_d_1_14)"><path d="M12.044 5.837a6.167 6.167 0 00-6.165 6.165 6.167 6.167 0 006.165 6.166 6.167 6.167 0 006.166-6.166 6.167 6.167 0 00-6.166-6.165zm0 10.165a4 4 0 11.002-8 4 4 0 01-.002 8z" fill="#fff"/><path d="M6.378 12.002a5.668 5.668 0 015.666-5.666 5.668 5.668 0 015.667 5.666 5.668 5.668 0 01-5.666 5.667 5.668 5.668 0 01-5.667-5.667zm1.168 0a4.499 4.499 0 108.998 0 4.499 4.499 0 00-8.998 0z" stroke="#fff" stroke-width=".998"/></g><g filter="url(#filter2_d_1_14)"><path d="M19.893 5.593a1.44 1.44 0 11-2.879 0 1.44 1.44 0 012.879 0z" fill="#fff"/><path d="M19.394 5.593a.94.94 0 11-1.88 0 .94.94 0 011.88 0z" stroke="#fff" stroke-width=".998"/></g></g><defs><filter id="filter0_d_1_14" x="-3.958" y="0" width="31.995" height="32" filterUnits="userSpaceOnUse" color-interpolation-filters="sRGB"><feFlood flood-opacity="0" result="BackgroundImageFix"/><feColorMatrix in="SourceAlpha" values="0 0 0 0 0 0 0 0 0 0 0 0 0 0 0 0 0 0 127 0" result="hardAlpha"/><feOffset dy="4"/><feGaussianBlur stdDeviation="2"/><feComposite in2="hardAlpha" operator="out"/><feColorMatrix values="0 0 0 0 0 0 0 0 0 0 0 0 0 0 0 0 0 0 0.25 0"/><feBlend in2="BackgroundImageFix" result="effect1_dropShadow_1_14"/><feBlend in="SourceGraphic" in2="effect1_dropShadow_1_14" result="shape"/></filter><filter id="filter1_d_1_14" x="1.879" y="5.837" width="20.331" height="20.331" filterUnits="userSpaceOnUse" color-interpolation-filters="sRGB"><feFlood flood-opacity="0" result="BackgroundImageFix"/><feColorMatrix in="SourceAlpha" values="0 0 0 0 0 0 0 0 0 0 0 0 0 0 0 0 0 0 127 0" result="hardAlpha"/><feOffset dy="4"/><feGaussianBlur stdDeviation="2"/><feComposite in2="hardAlpha" operator="out"/><feColorMatrix values="0 0 0 0 0 0 0 0 0 0 0 0 0 0 0 0 0 0 0.25 0"/><feBlend in2="BackgroundImageFix" result="effect1_dropShadow_1_14"/><feBlend in="SourceGraphic" in2="effect1_dropShadow_1_14" result="shape"/></filter><filter id="filter2_d_1_14" x="13.014" y="4.154" width="10.879" height="10.879" filterUnits="userSpaceOnUse" color-interpolation-filters="sRGB"><feFlood flood-opacity="0" result="BackgroundImageFix"/><feColorMatrix in="SourceAlpha" values="0 0 0 0 0 0 0 0 0 0 0 0 0 0 0 0 0 0 127 0" result="hardAlpha"/><feOffset dy="4"/><feGaussianBlur stdDeviation="2"/><feComposite in2="hardAlpha" operator="out"/><feColorMatrix values="0 0 0 0 0 0 0 0 0 0 0 0 0 0 0 0 0 0 0.25 0"/><feBlend in2="BackgroundImageFix" result="effect1_dropShadow_1_14"/><feBlend in="SourceGraphic" in2="effect1_dropShadow_1_14" result="shape"/></filter><clipPath id="clip0_1_14"><path fill="#fff" d="M0 0h24v24H0z"/></clipPath></defs></svg>