<svg width="24" height="24" viewBox="0 0 24 24" fill="none" xmlns="http://www.w3.org/2000/svg">
<g id="instagram" clip-path="url(#clip0_1_14)">
<g id="Vector" filter="url(#filter0_d_1_14)">
<path d="M23.9765 7.05607C23.9203 5.78085 23.7141 4.90416 23.4187 4.14449C23.1139 3.33812 22.6451 2.61617 22.0308 2.01602C21.4307 1.40652 20.704 0.932921 19.9069 0.632936C19.1429 0.337529 18.2707 0.131312 16.9955 0.0750879C15.7108 0.0141019 15.3029 0 12.0445 0C8.78604 0 8.37819 0.0141019 7.09821 0.0703262C5.823 0.126551 4.9463 0.332951 4.18682 0.628174C3.38026 0.932922 2.65832 1.40176 2.05817 2.01602C1.44867 2.61617 0.975254 3.34288 0.675085 4.13991C0.379679 4.90416 0.173462 5.77609 0.117237 7.0513C0.0562514 8.33604 0.0421495 8.7439 0.0421495 12.0023C0.0421495 15.2608 0.0562514 15.6686 0.112476 16.9486C0.1687 18.2238 0.3751 19.1005 0.670507 19.8602C0.975254 20.6666 1.44867 21.3885 2.05817 21.9887C2.65832 22.5982 3.38503 23.0718 4.18206 23.3718C4.9463 23.6672 5.81824 23.8734 7.09364 23.9296C8.37343 23.986 8.78146 23.9999 12.0399 23.9999C15.2984 23.9999 15.7062 23.986 16.9862 23.9296C18.2614 23.8734 19.1381 23.6672 19.8976 23.3718C21.5105 22.7482 22.7857 21.4729 23.4093 19.8602C23.7045 19.096 23.9109 18.2238 23.9672 16.9486C24.0234 15.6686 24.0375 15.2608 24.0375 12.0023C24.0375 8.7439 24.0327 8.33604 23.9765 7.05607ZM21.8153 16.8549C21.7636 18.027 21.5667 18.6599 21.4026 19.0819C20.9994 20.1274 20.1695 20.9572 19.124 21.3605C18.702 21.5246 18.0645 21.7215 16.897 21.7729C15.6311 21.8293 15.2515 21.8433 12.0493 21.8433C8.84703 21.8433 8.46262 21.8293 7.20132 21.7729C6.02922 21.7215 5.39628 21.5246 4.97433 21.3605C4.45402 21.1682 3.98042 20.8634 3.596 20.4649C3.19749 20.0758 2.89274 19.6069 2.70044 19.0866C2.53635 18.6647 2.33947 18.027 2.28801 16.8596C2.2316 15.5937 2.21768 15.2139 2.21768 12.0117C2.21768 8.80946 2.2316 8.42505 2.28801 7.16394C2.33947 5.99183 2.53635 5.3589 2.70044 4.93694C2.89274 4.41645 3.19749 3.94303 3.60077 3.55843C3.98976 3.15992 4.4586 2.85517 4.97909 2.66306C5.40104 2.49896 6.03874 2.30209 7.20608 2.25044C8.47196 2.19422 8.85179 2.18011 12.0538 2.18011C15.2608 2.18011 15.6405 2.19422 16.9018 2.25044C18.0739 2.30209 18.7068 2.49896 19.1288 2.66306C19.6491 2.85517 20.1227 3.15992 20.5071 3.55843C20.9056 3.94761 21.2103 4.41645 21.4026 4.93694C21.5667 5.3589 21.7636 5.99641 21.8153 7.16394C21.8715 8.42981 21.8856 8.80946 21.8856 12.0117C21.8856 15.2139 21.8715 15.589 21.8153 16.8549Z" fill="white"/>
<path d="M22.9517 4.32094L22.9518 4.32094C22.6723 3.58147 22.2433 2.92145 21.682 2.37302L21.6751 2.36628L21.6752 2.36622C21.1254 1.8079 20.4599 1.37438 19.7311 1.10007L19.7269 1.09849L19.7269 1.09847C19.0178 0.82432 18.1996 0.627782 16.9735 0.573724L16.9719 0.57365C15.699 0.513226 15.3005 0.499121 12.0445 0.499121C8.78872 0.499121 8.38928 0.513217 7.1202 0.568963L22.9517 4.32094ZM22.9517 4.32094L22.9535 4.32538M22.9517 4.32094L22.9535 4.32538M22.9535 4.32538C23.2271 5.02907 23.4238 5.85141 23.4779 7.07797L22.9535 4.32538ZM4.36324 1.0951L4.36323 1.09508C3.6236 1.37454 2.9636 1.80352 2.41517 2.36483L2.40843 2.37173L2.40836 2.37166C1.8501 2.92138 1.41671 3.58685 1.14218 4.31582L1.14066 4.31987L1.14064 4.31986C0.866463 5.02918 0.669931 5.84724 0.615874 7.07329L0.6158 7.07497C0.555375 8.34782 0.54127 8.74638 0.54127 12.0023C0.54127 15.2581 0.555366 15.6576 0.611112 16.9266L4.36324 1.0951ZM4.36324 1.0951L4.36765 1.09338M4.36324 1.0951L4.36765 1.09338M4.36765 1.09338C5.07125 0.819885 5.89362 0.62305 7.12012 0.568966L4.36765 1.09338ZM1.13742 19.6837L1.1374 19.6838C1.41636 20.4219 1.84967 21.0829 2.40836 21.633L2.41386 21.6384L2.41381 21.6385C2.96357 22.1968 3.62904 22.6303 4.35787 22.9046L4.36201 22.9062C5.07132 23.1804 5.88938 23.3769 7.11562 23.431C8.3845 23.4869 8.78401 23.5008 12.0399 23.5008C15.2958 23.5008 15.6951 23.4869 16.9642 23.431C18.1908 23.3769 19.0132 23.1802 19.7167 22.9066L19.7176 22.9062C21.1993 22.3333 22.3708 21.1619 22.9437 19.6803L1.13742 19.6837ZM1.13742 19.6837L1.13569 19.6793M1.13742 19.6837L1.13569 19.6793M1.13569 19.6793C0.862033 18.9756 0.665199 18.1532 0.611116 16.9267L1.13569 19.6793ZM23.4685 16.9267C23.4685 16.9267 23.4685 16.9267 23.4685 16.9266L23.9672 16.9486L23.4685 16.9267ZM23.4685 16.9267C23.4145 18.1526 23.2178 18.9708 22.9438 19.6802L23.4685 16.9267ZM21.8681 19.2621C21.4141 20.4385 20.4809 21.3718 19.3045 21.8258C18.8332 22.0091 18.1421 22.2176 16.9192 22.2716C16.9191 22.2716 16.9191 22.2716 16.919 22.2716L16.897 21.7729C15.6311 21.8293 15.2515 21.8433 12.0493 21.8433L21.8681 19.2621ZM21.8681 19.2621C22.0512 18.791 22.2598 18.1046 22.3139 16.877C22.3706 15.6003 22.3847 15.2167 22.3847 12.0117C22.3847 8.80665 22.3706 8.41851 22.3139 7.14179C22.2599 5.9219 22.0523 5.23128 21.8694 4.75998C21.652 4.17352 21.3087 3.64515 20.8611 3.20653C20.4248 2.75591 19.8903 2.41287 19.3057 2.19635C18.8347 2.0135 18.1487 1.8058 16.924 1.75181L21.8681 19.2621ZM2.23375 19.2636C2.45109 19.8499 2.79439 20.3782 3.24197 20.8168L1.78938 16.8818C1.84318 18.1015 2.0508 18.7923 2.23375 19.2636ZM1.71856 12.0117C1.71856 15.2165 1.73249 15.605 1.78937 16.8816L7.18394 1.75181C5.96427 1.80578 5.27346 2.01338 4.80215 2.19633C4.21611 2.41333 3.68807 2.75631 3.24982 3.20343C2.79352 3.64054 2.45036 4.17543 2.23374 4.75994C2.0509 5.23095 1.8432 5.91701 1.78939 7.14163C1.73249 8.41375 1.71856 8.80676 1.71856 12.0117ZM12.0538 1.68099C8.84905 1.68099 8.46068 1.6951 7.18402 1.75181L16.9237 1.7518C15.6517 1.6951 15.2634 1.68099 12.0538 1.68099Z" stroke="white" stroke-width="0.998242"/>
</g>
<g id="Vector_2" filter="url(#filter1_d_1_14)">
<path d="M12.0445 5.83716C8.6408 5.83716 5.87921 8.59856 5.87921 12.0024C5.87921 15.4063 8.6408 18.1677 12.0445 18.1677C15.4483 18.1677 18.2097 15.4063 18.2097 12.0024C18.2097 8.59856 15.4483 5.83716 12.0445 5.83716ZM12.0445 16.0017C9.83634 16.0017 8.04522 14.2107 8.04522 12.0024C8.04522 9.79411 9.83634 8.00317 12.0445 8.00317C14.2528 8.00317 16.0437 9.79411 16.0437 12.0024C16.0437 14.2107 14.2528 16.0017 12.0445 16.0017Z" fill="white"/>
<path d="M6.37833 12.0024C6.37833 8.87423 8.91645 6.33628 12.0445 6.33628C15.1727 6.33628 17.7106 8.87422 17.7106 12.0024C17.7106 15.1306 15.1727 17.6686 12.0445 17.6686C8.91645 17.6686 6.37833 15.1306 6.37833 12.0024ZM7.5461 12.0024C7.5461 14.4864 9.5607 16.5008 12.0445 16.5008C14.5284 16.5008 16.5428 14.4864 16.5428 12.0024C16.5428 9.51845 14.5284 7.50405 12.0445 7.50405C9.5607 7.50405 7.5461 9.51844 7.5461 12.0024Z" stroke="white" stroke-width="0.998242"/>
</g>
<g id="Vector_3" filter="url(#filter2_d_1_14)">
<path d="M19.893 5.59312C19.893 6.38795 19.2485 7.03242 18.4535 7.03242C17.6587 7.03242 17.0142 6.38795 17.0142 5.59312C17.0142 4.7981 17.6587 4.15381 18.4535 4.15381C19.2485 4.15381 19.893 4.7981 19.893 5.59312Z" fill="white"/>
<path d="M19.3939 5.59312C19.3939 6.11225 18.9729 6.5333 18.4535 6.5333C17.9343 6.5333 17.5133 6.11229 17.5133 5.59312C17.5133 5.0738 17.9343 4.65293 18.4535 4.65293C18.973 4.65293 19.3939 5.07384 19.3939 5.59312Z" stroke="white" stroke-width="0.998242"/>
</g>
</g>
<defs>
<filter id="filter0_d_1_14" x="-3.95785" y="0" width="31.9953" height="32" filterUnits="userSpaceOnUse" color-interpolation-filters="sRGB">
<feFlood flood-opacity="0" result="BackgroundImageFix"/>
<feColorMatrix in="SourceAlpha" type="matrix" values="0 0 0 0 0 0 0 0 0 0 0 0 0 0 0 0 0 0 127 0" result="hardAlpha"/>
<feOffset dy="4"/>
<feGaussianBlur stdDeviation="2"/>
<feComposite in2="hardAlpha" operator="out"/>
<feColorMatrix type="matrix" values="0 0 0 0 0 0 0 0 0 0 0 0 0 0 0 0 0 0 0.25 0"/>
<feBlend mode="normal" in2="BackgroundImageFix" result="effect1_dropShadow_1_14"/>
<feBlend mode="normal" in="SourceGraphic" in2="effect1_dropShadow_1_14" result="shape"/>
</filter>
<filter id="filter1_d_1_14" x="1.87921" y="5.83716" width="20.3305" height="20.3306" filterUnits="userSpaceOnUse" color-interpolation-filters="sRGB">
<feFlood flood-opacity="0" result="BackgroundImageFix"/>
<feColorMatrix in="SourceAlpha" type="matrix" values="0 0 0 0 0 0 0 0 0 0 0 0 0 0 0 0 0 0 127 0" result="hardAlpha"/>
<feOffset dy="4"/>
<feGaussianBlur stdDeviation="2"/>
<feComposite in2="hardAlpha" operator="out"/>
<feColorMatrix type="matrix" values="0 0 0 0 0 0 0 0 0 0 0 0 0 0 0 0 0 0 0.25 0"/>
<feBlend mode="normal" in2="BackgroundImageFix" result="effect1_dropShadow_1_14"/>
<feBlend mode="normal" in="SourceGraphic" in2="effect1_dropShadow_1_14" result="shape"/>
</filter>
<filter id="filter2_d_1_14" x="13.0142" y="4.15381" width="10.8788" height="10.8787" filterUnits="userSpaceOnUse" color-interpolation-filters="sRGB">
<feFlood flood-opacity="0" result="BackgroundImageFix"/>
<feColorMatrix in="SourceAlpha" type="matrix" values="0 0 0 0 0 0 0 0 0 0 0 0 0 0 0 0 0 0 127 0" result="hardAlpha"/>
<feOffset dy="4"/>
<feGaussianBlur stdDeviation="2"/>
<feComposite in2="hardAlpha" operator="out"/>
<feColorMatrix type="matrix" values="0 0 0 0 0 0 0 0 0 0 0 0 0 0 0 0 0 0 0.25 0"/>
<feBlend mode="normal" in2="BackgroundImageFix" result="effect1_dropShadow_1_14"/>
<feBlend mode="normal" in="SourceGraphic" in2="effect1_dropShadow_1_14" result="shape"/>
</filter>
<clipPath id="clip0_1_14">
<rect width="24" height="24" fill="white"/>
</clipPath>
</defs>
</svg>
